<?xml version="1.0" encoding="UTF-8"?>
<svg width="21px" height="19px" viewBox="0 0 21 19" version="1.1" xmlns="http://www.w3.org/2000/svg" xmlns:xlink="http://www.w3.org/1999/xlink">
    <!-- Generator: Sketch 51.3 (57544) - http://www.bohemiancoding.com/sketch -->
    <title>cart</title>
    <desc>Created with Sketch.</desc>
    <defs></defs>
    <g id="Page-1" stroke="none" stroke-width="1" fill="none" fill-rule="evenodd">
        <g id="1.-Home" transform="translate(-340.000000, -111.000000)" fill="#FFFFFF" fill-rule="nonzero">
            <g id="Nav" transform="translate(0.000000, 92.000000)">
                <g id="basket" transform="translate(340.000000, 19.000000)">
                    <g id="cart">
                        <path d="M20.9845304,8.91615258 C21.0759926,8.42254569 20.7549795,7.93073113 20.2044247,7.84147324 C19.6986782,7.75220639 19.1947682,8.06551413 19.1033151,8.6028538 L17.817463,15.4132487 L17.817463,15.5917825 C17.817463,16.4424209 17.0821656,17.1600687 16.2106069,17.1600687 L4.8244247,17.1618189 C3.95286596,17.1618189 3.21756862,16.4441711 3.21756862,15.5935327 L3.21756862,15.414999 L2.16126734,9.72480845 L15.6579402,9.72480845 C16.0255797,9.72480845 16.3465928,9.54627475 16.4846906,9.23120157 C16.6676151,8.91789383 16.6227792,8.5590789 16.4380643,8.2895129 L11.3429532,0.448081778 C11.1600287,0.178533704 10.8838514,0.0455071854 10.5162028,0 C10.1951896,0 9.87419489,0.178533704 9.68945235,0.448081778 L6.93484193,4.9746039 C6.65866469,5.42268568 6.79675331,6.00555046 7.25585505,6.27332413 C7.71495678,6.54287221 8.31215632,6.40809817 8.58651552,5.96001639 L10.5610203,2.73418605 L13.9128302,7.79795823 L0.966620344,7.79620802 L0.875158096,7.79620802 L0.783695848,7.79620802 C0.737069475,7.79620802 0.6922336,7.79620802 0.6922336,7.84171521 C0.645607227,7.84171521 0.645607227,7.84171521 0.600771352,7.88722239 C0.554144979,7.88722239 0.554144979,7.93272958 0.509309103,7.93272958 C0.462682731,7.93272958 0.462682731,7.97823676 0.417846855,7.97823676 C0.371220483,7.97823676 0.371220483,8.02374395 0.371220483,8.02374395 C0.32459411,8.02374395 0.32459411,8.06925113 0.279758235,8.06925113 C0.279758235,8.06925113 0.233131862,8.11475832 0.233131862,8.15851799 L0.18650549,8.20402517 C0.18650549,8.24953236 0.139879117,8.24953236 0.139879117,8.29329202 C0.139879117,8.33879921 0.0932527449,8.33879921 0.0932527449,8.38255887 C0.0932527449,8.42806606 0.0932527449,8.42806606 0.0466263725,8.47182573 C0.0466263725,8.51733291 0.0466263725,8.51733291 0,8.56109258 L0,8.65035943 L0,8.73962628 L0,8.82889313 L0,8.91815999 L1.23920741,15.6393867 C1.28583378,17.4772389 2.84606349,19 4.77392351,19 L16.1601057,19 C18.0879657,19 19.6500135,17.5209717 19.6948218,15.6393867 L20.9845304,8.91615258 Z" id="Shape"></path>
                    </g>
                </g>
            </g>
        </g>
    </g>
</svg>