<?xml version="1.0" encoding="UTF-8"?>
<svg width="22px" height="22px" viewBox="0 0 22 22" version="1.1" xmlns="http://www.w3.org/2000/svg" xmlns:xlink="http://www.w3.org/1999/xlink">
    <!-- Generator: Sketch 54.1 (76490) - https://sketchapp.com -->
    <title>Shape</title>
    <desc>Created with Sketch.</desc>
    <g id="Page-1" stroke="none" stroke-width="1" fill="none" fill-rule="evenodd">
        <g id="2.-Food" transform="translate(-325.000000, -181.000000)" fill="#C4C4C4" fill-rule="nonzero">
            <g id="Search" transform="translate(10.000000, 167.000000)">
                <g id="np_search_1166289_DBDBDB-Copy" transform="translate(315.000000, 14.000000)">
                    <path d="M8.86062808,0 C3.97811647,0 0,3.97811647 0,8.86062808 C0,13.7431397 3.97811647,17.7212562 8.86062808,17.7212562 C10.971963,17.7212562 12.9114628,16.9753135 14.436713,15.7352533 L20.4329139,21.7314542 C20.7909749,22.0895153 21.3733932,22.0895153 21.7314542,21.7314542 C22.0895153,21.3733932 22.0895153,20.8005078 21.7314542,20.4424467 L15.7352533,14.4462458 C16.9776967,12.9209345 17.7212562,10.9744073 17.7212562,8.86068919 C17.7212562,3.97817758 13.7431397,6.11077799e-05 8.86062808,6.11077799e-05 L8.86062808,0 Z M8.86062808,1.8332334 C12.7525826,1.8332334 15.8880228,4.96867358 15.8880228,8.86062808 C15.8880228,12.7525826 12.7525826,15.8880228 8.86062808,15.8880228 C4.96867358,15.8880228 1.8332334,12.7525826 1.8332334,8.86062808 C1.8332334,4.96867358 4.96867358,1.8332334 8.86062808,1.8332334 Z" id="Shape"></path>
                </g>
            </g>
        </g>
    </g>
</svg>